<?xml version="1.0" encoding="utf-8"?>
<!-- Generator: Adobe Illustrator 17.0.0, SVG Export Plug-In . SVG Version: 6.00 Build 0)  -->
<!DOCTYPE svg PUBLIC "-//W3C//DTD SVG 1.1//EN" "http://www.w3.org/Graphics/SVG/1.1/DTD/svg11.dtd" [
	<!ENTITY ns_extend "http://ns.adobe.com/Extensibility/1.0/">
	<!ENTITY ns_ai "http://ns.adobe.com/AdobeIllustrator/10.0/">
	<!ENTITY ns_graphs "http://ns.adobe.com/Graphs/1.0/">
	<!ENTITY ns_vars "http://ns.adobe.com/Variables/1.0/">
	<!ENTITY ns_imrep "http://ns.adobe.com/ImageReplacement/1.0/">
	<!ENTITY ns_sfw "http://ns.adobe.com/SaveForWeb/1.0/">
	<!ENTITY ns_custom "http://ns.adobe.com/GenericCustomNamespace/1.0/">
	<!ENTITY ns_adobe_xpath "http://ns.adobe.com/XPath/1.0/">
]>
<svg version="1.1" id="Warstwa_1" xmlns:x="&ns_extend;" xmlns:i="&ns_ai;" xmlns:graph="&ns_graphs;"
	 xmlns="http://www.w3.org/2000/svg" xmlns:xlink="http://www.w3.org/1999/xlink" x="0px" y="0px" width="96.083px" height="32px"
	 viewBox="0 0 96.083 32" enable-background="new 0 0 96.083 32" xml:space="preserve">
<metadata>
	<sfw  xmlns="&ns_sfw;">
		<slices></slices>
		<sliceSourceBounds  height="202.901" width="627.083" y="-361.528" x="147.833" bottomLeftOrigin="true"></sliceSourceBounds>
	</sfw>
</metadata>
<g>
	<rect x="6.25" y="-6.083" fill="none" width="627.083" height="198.611"/>
	<path fill="#00EB7F" d="M21.178,6.156c0.144,0.136,0.216,0.292,0.216,0.468c0,0.112-0.024,0.232-0.072,0.36l-6.408,15.312
		c-0.064,0.144-0.16,0.26-0.288,0.348c-0.128,0.088-0.264,0.132-0.408,0.132c-0.144,0-0.276-0.04-0.396-0.12
		c-0.12-0.08-0.212-0.192-0.276-0.336L7.162,7.032C7.114,6.936,7.09,6.808,7.09,6.648c0-0.208,0.072-0.376,0.216-0.504
		s0.304-0.192,0.48-0.192c0.336,0,0.576,0.176,0.72,0.528l5.784,13.824l5.688-13.872c0.08-0.144,0.18-0.26,0.3-0.348
		c0.12-0.088,0.244-0.132,0.372-0.132C20.858,5.952,21.034,6.02,21.178,6.156z"/>
	<path fill="#00EB7F" d="M37.09,22.08c0,0.08-0.032,0.184-0.096,0.312c-0.064,0.112-0.152,0.2-0.264,0.264
		c-0.112,0.064-0.232,0.096-0.36,0.096c-0.16,0-0.296-0.032-0.408-0.096c-0.448-0.256-0.808-0.672-1.08-1.248
		c-0.272-0.576-0.408-1.496-0.408-2.76c0-1.12-0.312-1.908-0.936-2.364S32.17,15.6,31.306,15.6h-5.328v6.456
		c0,0.208-0.064,0.38-0.192,0.516c-0.128,0.136-0.296,0.204-0.504,0.204c-0.224,0-0.416-0.068-0.576-0.204
		c-0.16-0.136-0.24-0.308-0.24-0.516V6.696c0-0.208,0.068-0.38,0.204-0.516c0.136-0.136,0.308-0.204,0.516-0.204h6.48
		c0.912,0,1.728,0.196,2.448,0.588c0.72,0.392,1.284,0.932,1.692,1.62c0.408,0.688,0.612,1.464,0.612,2.328
		c0,1.024-0.268,1.924-0.804,2.7c-0.536,0.776-1.236,1.308-2.1,1.596c0.704,0.272,1.28,0.732,1.728,1.38
		c0.448,0.648,0.68,1.436,0.696,2.364c0.016,0.992,0.084,1.688,0.204,2.088c0.12,0.4,0.315,0.681,0.588,0.84
		C36.97,21.64,37.09,21.84,37.09,22.08z M31.738,14.28c0.56-0.048,1.08-0.231,1.56-0.552c0.48-0.32,0.864-0.752,1.152-1.296
		c0.288-0.543,0.432-1.167,0.432-1.872c0-0.912-0.308-1.668-0.924-2.268c-0.616-0.6-1.42-0.9-2.412-0.9h-5.568v6.888H31.738z"/>
	<path fill="#00EB7F" d="M40.669,22.366c-0.234-0.273-0.351-0.644-0.351-1.111v-0.819c0-0.468,0.117-0.832,0.351-1.092
		c0.234-0.259,0.572-0.39,1.014-0.39h0.273c0.442,0,0.78,0.13,1.014,0.39c0.234,0.26,0.351,0.624,0.351,1.092v0.819
		c0,0.468-0.117,0.838-0.351,1.111c-0.234,0.273-0.572,0.41-1.014,0.41h-0.273C41.241,22.776,40.903,22.639,40.669,22.366z"/>
	<path fill="#000333" d="M62.665,10.356c0.264,0.28,0.396,0.636,0.396,1.068c0,0.144-0.032,0.328-0.096,0.552l-3.672,9.888
		c-0.096,0.288-0.268,0.516-0.516,0.684c-0.249,0.168-0.516,0.252-0.804,0.252l-0.192-0.024c-0.544-0.032-0.952-0.336-1.224-0.912
		l-2.04-5.904l-1.944,5.904c-0.272,0.576-0.68,0.88-1.224,0.912L51.157,22.8c-0.288,0-0.556-0.084-0.804-0.252
		s-0.42-0.396-0.516-0.684l-3.672-9.888c-0.064-0.176-0.096-0.36-0.096-0.552c0-0.4,0.132-0.748,0.396-1.044
		c0.264-0.296,0.612-0.444,1.044-0.444c0.32,0,0.596,0.076,0.828,0.228s0.396,0.38,0.492,0.684l2.592,7.032l1.896-5.136
		c0.256-0.591,0.696-0.888,1.32-0.888c0.336,0,0.596,0.072,0.78,0.216s0.34,0.368,0.468,0.672l1.848,5.016l2.568-6.912
		c0.096-0.304,0.264-0.532,0.504-0.684c0.24-0.152,0.536-0.228,0.888-0.228C62.077,9.936,62.401,10.076,62.665,10.356z"/>
	<path fill="#000333" d="M73.225,10.104c0.328,0.272,0.492,0.592,0.492,0.96c0,0.496-0.128,0.868-0.384,1.116
		c-0.256,0.249-0.56,0.372-0.912,0.372c-0.24,0-0.512-0.056-0.816-0.168c-0.048-0.016-0.156-0.048-0.324-0.096
		c-0.168-0.048-0.348-0.072-0.54-0.072c-0.416,0-0.816,0.128-1.2,0.384c-0.384,0.256-0.7,0.644-0.948,1.164
		c-0.248,0.521-0.372,1.14-0.372,1.86v5.688c0,0.416-0.136,0.764-0.408,1.044c-0.272,0.28-0.616,0.42-1.032,0.42
		s-0.76-0.14-1.032-0.42c-0.272-0.28-0.408-0.628-0.408-1.044V11.4c0-0.416,0.136-0.764,0.408-1.044
		c0.272-0.28,0.616-0.42,1.032-0.42s0.76,0.14,1.032,0.42c0.271,0.28,0.408,0.628,0.408,1.044v0.312
		c0.368-0.656,0.896-1.156,1.584-1.5c0.688-0.344,1.424-0.516,2.208-0.516C72.493,9.696,72.897,9.832,73.225,10.104z"/>
	<path fill="#000333" d="M86.701,19.812c-0.576,1.016-1.364,1.804-2.364,2.364c-1,0.561-2.1,0.84-3.3,0.84
		c-1.216,0-2.32-0.28-3.312-0.84c-0.992-0.56-1.776-1.348-2.352-2.364c-0.576-1.016-0.864-2.164-0.864-3.444
		c0-1.28,0.288-2.428,0.864-3.444c0.576-1.016,1.36-1.808,2.352-2.376c0.992-0.568,2.096-0.852,3.312-0.852
		c1.2,0,2.3,0.284,3.3,0.852c1,0.568,1.788,1.36,2.364,2.376c0.576,1.016,0.864,2.164,0.864,3.444
		C87.565,17.648,87.277,18.796,86.701,19.812z M84.193,14.268c-0.328-0.616-0.768-1.092-1.32-1.428
		c-0.552-0.336-1.164-0.504-1.836-0.504c-0.672,0-1.284,0.168-1.836,0.504c-0.552,0.336-0.993,0.813-1.32,1.428
		c-0.328,0.616-0.492,1.316-0.492,2.1c0,0.784,0.164,1.48,0.492,2.088c0.328,0.608,0.768,1.08,1.32,1.416
		c0.552,0.336,1.164,0.504,1.836,0.504c0.672,0,1.284-0.168,1.836-0.504c0.552-0.336,0.992-0.808,1.32-1.416
		c0.328-0.608,0.492-1.304,0.492-2.088C84.685,15.584,84.521,14.884,84.193,14.268z"/>
</g>
<g>
</g>
<g>
</g>
<g>
</g>
<g>
</g>
<g>
</g>
<g>
</g>
<g>
</g>
<g>
</g>
<g>
</g>
<g>
</g>
<g>
</g>
<g>
</g>
<g>
</g>
<g>
</g>
<g>
</g>
</svg>
