<?xml version="1.0" encoding="utf-8"?>
<!-- Generator: Adobe Illustrator 17.0.0, SVG Export Plug-In . SVG Version: 6.00 Build 0)  -->
<!DOCTYPE svg PUBLIC "-//W3C//DTD SVG 1.1//EN" "http://www.w3.org/Graphics/SVG/1.1/DTD/svg11.dtd" [
	<!ENTITY ns_extend "http://ns.adobe.com/Extensibility/1.0/">
	<!ENTITY ns_ai "http://ns.adobe.com/AdobeIllustrator/10.0/">
	<!ENTITY ns_graphs "http://ns.adobe.com/Graphs/1.0/">
	<!ENTITY ns_vars "http://ns.adobe.com/Variables/1.0/">
	<!ENTITY ns_imrep "http://ns.adobe.com/ImageReplacement/1.0/">
	<!ENTITY ns_sfw "http://ns.adobe.com/SaveForWeb/1.0/">
	<!ENTITY ns_custom "http://ns.adobe.com/GenericCustomNamespace/1.0/">
	<!ENTITY ns_adobe_xpath "http://ns.adobe.com/XPath/1.0/">
]>
<svg version="1.1" id="Warstwa_1" xmlns:x="&ns_extend;" xmlns:i="&ns_ai;" xmlns:graph="&ns_graphs;"
	 xmlns="http://www.w3.org/2000/svg" xmlns:xlink="http://www.w3.org/1999/xlink" x="0px" y="0px" width="297px" height="86px"
	 viewBox="0 0 297 86" style="enable-background:new 0 0 297 86;" xml:space="preserve">
<style type="text/css">
	.st0{fill:none;stroke:#22E97A;stroke-width:2;stroke-miterlimit:10;}
	.st1{fill:none;stroke:#22E97A;stroke-width:2.0478;stroke-miterlimit:10;}
	.st2{fill:none;}
	.st3{fill:#00082E;stroke:#00082E;stroke-miterlimit:10;}
	.st4{fill:#00082E;stroke:#00082E;stroke-width:5;stroke-miterlimit:10;}
	.st5{fill:none;stroke:#22E97A;stroke-width:2.5455;stroke-miterlimit:10;}
	.st6{fill:none;stroke:#22E97A;stroke-width:1.9482;stroke-miterlimit:10;}
</style>
<metadata>
	<sfw  xmlns="&ns_sfw;">
		<slices></slices>
		<sliceSourceBounds  width="551.892" height="202.588" x="263" y="-433.946" bottomLeftOrigin="true"></sliceSourceBounds>
	</sfw>
</metadata>
<rect x="142.5" y="15.5" transform="matrix(0.7071 -0.7071 0.7071 0.7071 27.0492 114.3025)" class="st0" width="18" height="18"/>
<polygon class="st1" points="104.217,55.045 105.827,76.249 95.324,70.929 85.697,66.052 "/>
<g>
	<rect x="22.081" y="23.757" class="st2" width="535.811" height="189.189"/>
	<path class="st3" d="M32.977,58.772c-0.48-0.336-0.833-0.76-1.056-1.272l-8.352-19.968c-0.16-0.384-0.24-0.72-0.24-1.008
		c0-0.607,0.208-1.128,0.624-1.56c0.416-0.432,0.928-0.648,1.536-0.648c0.416,0,0.808,0.12,1.176,0.36
		c0.368,0.24,0.631,0.536,0.792,0.888l7.344,18.624l7.344-18.624c0.16-0.352,0.424-0.648,0.792-0.888
		c0.368-0.24,0.76-0.36,1.176-0.36c0.607,0,1.12,0.216,1.536,0.648c0.416,0.432,0.624,0.952,0.624,1.56
		c0,0.288-0.08,0.624-0.24,1.008L37.681,57.5c-0.224,0.512-0.576,0.936-1.056,1.272s-1.008,0.504-1.584,0.504h-0.48
		C33.985,59.276,33.457,59.108,32.977,58.772z"/>
	<path class="st3" d="M51.649,28.844c-0.48-0.48-0.72-1.056-0.72-1.728v-0.192c0-0.672,0.24-1.248,0.72-1.728s1.056-0.72,1.728-0.72
		h0.288c0.672,0,1.248,0.24,1.728,0.72s0.72,1.056,0.72,1.728v0.192c0,0.672-0.24,1.248-0.72,1.728s-1.056,0.72-1.728,0.72h-0.288
		C52.705,29.564,52.129,29.324,51.649,28.844z M51.937,58.652c-0.417-0.416-0.624-0.928-0.624-1.536V36.524
		c0-0.607,0.208-1.128,0.624-1.56c0.416-0.432,0.928-0.648,1.536-0.648c0.64,0,1.167,0.208,1.584,0.624
		c0.416,0.417,0.624,0.944,0.624,1.584v20.592c0,0.608-0.216,1.121-0.648,1.536c-0.432,0.416-0.953,0.624-1.56,0.624
		C52.865,59.276,52.353,59.068,51.937,58.652z"/>
	<path class="st3" d="M63.889,58.652c-0.417-0.416-0.624-0.928-0.624-1.536V36.524c0-0.607,0.208-1.128,0.624-1.56
		c0.416-0.432,0.928-0.648,1.536-0.648c0.607,0,1.128,0.216,1.56,0.648c0.432,0.432,0.648,0.952,0.648,1.56v2.064
		c2.239-3.007,4.752-4.512,7.536-4.512h0.24c0.607,0,1.111,0.208,1.512,0.624c0.399,0.416,0.6,0.928,0.6,1.536
		s-0.208,1.104-0.624,1.488c-0.416,0.384-0.944,0.576-1.584,0.576h-0.24c-1.536,0-2.945,0.376-4.224,1.128
		c-1.28,0.752-2.352,1.784-3.216,3.096v14.592c0,0.608-0.216,1.121-0.648,1.536c-0.432,0.416-0.953,0.624-1.56,0.624
		C64.816,59.276,64.304,59.068,63.889,58.652z"/>
	<path class="st3" d="M83.088,53.18V38.3h-3.408c-0.257,0-0.473-0.088-0.648-0.264c-0.176-0.175-0.264-0.392-0.264-0.648
		c0-0.319,0.144-0.592,0.432-0.816l6.528-6.384c0.288-0.288,0.56-0.432,0.816-0.432c0.256,0,0.472,0.096,0.648,0.288
		c0.176,0.192,0.264,0.417,0.264,0.672v3.84h5.424c0.544,0,0.992,0.176,1.344,0.528c0.352,0.353,0.528,0.8,0.528,1.344
		c0,0.512-0.176,0.953-0.528,1.32c-0.353,0.368-0.8,0.552-1.344,0.552h-5.424v14.496c0,1.248,0.295,2.04,0.888,2.376
		c0.592,0.336,1.336,0.504,2.232,0.504c0.64,0,1.279-0.096,1.92-0.288c0.127-0.032,0.264-0.064,0.408-0.096
		c0.144-0.031,0.328-0.048,0.552-0.048c0.448,0,0.847,0.168,1.2,0.504c0.352,0.336,0.528,0.744,0.528,1.224
		c0,0.736-0.368,1.296-1.104,1.68c-1.248,0.576-2.576,0.864-3.984,0.864C85.424,59.516,83.088,57.404,83.088,53.18z"/>
	<path class="st3" d="M103.752,58.268c-1.296-0.832-2.288-1.968-2.976-3.408c-0.688-1.44-1.032-3.024-1.032-4.752V36.476
		c0-0.607,0.216-1.12,0.648-1.536c0.432-0.416,0.952-0.624,1.56-0.624s1.12,0.208,1.536,0.624c0.416,0.417,0.624,0.929,0.624,1.536
		v13.152c0,3.905,1.76,5.856,5.28,5.856c1.6,0,3.031-0.416,4.296-1.248c1.264-0.832,2.456-1.952,3.576-3.36v-14.4
		c0-0.607,0.216-1.12,0.648-1.536c0.432-0.416,0.952-0.624,1.56-0.624s1.12,0.208,1.536,0.624c0.416,0.417,0.624,0.929,0.624,1.536
		v20.592c0,0.608-0.208,1.128-0.624,1.56c-0.416,0.432-0.928,0.648-1.536,0.648s-1.128-0.216-1.56-0.648
		c-0.432-0.432-0.648-0.952-0.648-1.56V55.1c-1.216,1.344-2.528,2.417-3.936,3.216c-1.409,0.8-3.072,1.2-4.992,1.2
		C106.576,59.516,105.048,59.1,103.752,58.268z"/>
	<path class="st3" d="M131.543,58.652c-1.2-0.576-2.153-1.416-2.856-2.52c-0.705-1.104-1.056-2.376-1.056-3.816
		c0-2.368,0.936-4.255,2.808-5.664s4.615-2.112,8.232-2.112h5.808v-0.384c0-2.112-0.521-3.632-1.56-4.56
		c-1.041-0.928-2.664-1.392-4.872-1.392c-1.216,0-2.296,0.096-3.24,0.288s-1.992,0.48-3.144,0.864
		c-0.257,0.064-0.464,0.096-0.624,0.096c-0.48,0-0.896-0.175-1.248-0.528c-0.353-0.352-0.528-0.784-0.528-1.296
		c0-0.864,0.416-1.471,1.248-1.824c2.72-1.152,5.488-1.728,8.304-1.728c2.208,0,4.072,0.448,5.592,1.344
		c1.52,0.896,2.64,2.057,3.36,3.48c0.72,1.424,1.08,2.969,1.08,4.632v13.584c0,0.608-0.216,1.121-0.648,1.536
		c-0.432,0.416-0.952,0.624-1.56,0.624s-1.12-0.208-1.536-0.624c-0.417-0.416-0.624-0.928-0.624-1.536v-1.248
		c-2.369,2.432-5.376,3.648-9.024,3.648C134.047,59.516,132.743,59.228,131.543,58.652z M141.167,54.644
		c1.312-0.688,2.416-1.543,3.312-2.568v-4.032h-5.232c-4.833,0-7.248,1.265-7.248,3.792c0,1.152,0.391,2.081,1.176,2.784
		c0.784,0.704,2.088,1.056,3.912,1.056C138.495,55.676,139.855,55.333,141.167,54.644z"/>
	<path class="st3" d="M156.815,58.652c-0.417-0.416-0.624-0.928-0.624-1.536V25.964c0-0.608,0.208-1.128,0.624-1.56
		c0.416-0.432,0.928-0.648,1.536-0.648c0.64,0,1.167,0.208,1.584,0.624c0.416,0.416,0.624,0.944,0.624,1.584v31.152
		c0,0.608-0.216,1.121-0.648,1.536c-0.432,0.416-0.953,0.624-1.56,0.624C157.743,59.276,157.23,59.068,156.815,58.652z"/>
	<path class="st4" d="M176.375,58.724c-0.497-0.368-0.872-0.904-1.128-1.608l-9.408-28.896c-0.096-0.352-0.144-0.624-0.144-0.816
		c-0.033-0.607,0.151-1.112,0.552-1.512c0.4-0.4,0.919-0.6,1.56-0.6c0.511,0,0.96,0.161,1.344,0.48
		c0.384,0.32,0.656,0.737,0.816,1.248l8.064,26.496l8.112-26.4c0.16-0.544,0.472-0.984,0.936-1.32
		c0.463-0.336,0.984-0.504,1.56-0.504c0.576,0,1.096,0.168,1.56,0.504c0.463,0.336,0.775,0.776,0.936,1.32l8.112,26.4l8.064-26.496
		c0.16-0.511,0.432-0.928,0.816-1.248c0.384-0.319,0.832-0.48,1.344-0.48c0.64,0,1.159,0.2,1.56,0.6
		c0.399,0.4,0.583,0.905,0.552,1.512c0,0.192-0.048,0.464-0.144,0.816l-9.408,28.896c-0.257,0.704-0.632,1.24-1.128,1.608
		s-1.064,0.552-1.704,0.552c-0.641,0-1.224-0.201-1.752-0.6c-0.528-0.4-0.888-0.919-1.08-1.56l-7.728-24.48l-7.728,24.48
		c-0.192,0.641-0.552,1.16-1.08,1.56c-0.528,0.399-1.112,0.6-1.752,0.6C177.438,59.276,176.87,59.092,176.375,58.724z"/>
	<path class="st4" d="M218.158,58.652c-0.416-0.416-0.624-0.928-0.624-1.536V27.74c0-0.607,0.208-1.128,0.624-1.56
		c0.416-0.432,0.928-0.648,1.536-0.648h11.184c4.352,0,7.616,0.896,9.792,2.688c2.176,1.792,3.265,4.145,3.265,7.056
		c0,1.92-0.537,3.672-1.608,5.256c-1.072,1.584-2.633,2.729-4.68,3.432c2.304,0.608,3.88,2.04,4.728,4.296
		c0.848,2.256,1.272,4.472,1.272,6.648v2.208c0,0.608-0.209,1.121-0.624,1.536c-0.417,0.416-0.929,0.624-1.536,0.624
		c-0.672,0-1.208-0.201-1.608-0.6c-0.4-0.4-0.6-0.919-0.6-1.56v-1.44c0-1.6-0.145-3.08-0.433-4.44
		c-0.287-1.36-0.976-2.576-2.063-3.648c-1.088-1.071-2.736-1.608-4.944-1.608h-9.936v11.136c0,0.608-0.216,1.121-0.648,1.536
		s-0.953,0.624-1.56,0.624C219.085,59.276,218.573,59.068,218.158,58.652z M230.59,41.852c2.752,0,4.937-0.543,6.553-1.632
		c1.615-1.087,2.424-2.624,2.424-4.608c0-1.92-0.696-3.392-2.088-4.416c-1.393-1.024-3.769-1.536-7.128-1.536h-8.449v12.192H230.59z
		"/>
	<path class="st4" d="M257.709,57.308c-2.527-1.472-4.48-3.504-5.855-6.096c-1.376-2.592-2.097-5.568-2.16-8.928
		c0.063-3.36,0.784-6.336,2.16-8.928c1.375-2.592,3.328-4.624,5.855-6.096c2.528-1.472,5.473-2.208,8.832-2.208
		c3.36,0,6.296,0.736,8.809,2.208c2.512,1.472,4.464,3.512,5.855,6.12c1.393,2.608,2.12,5.576,2.185,8.904
		c-0.064,3.329-0.792,6.296-2.185,8.904c-1.392,2.609-3.344,4.648-5.855,6.12c-2.513,1.472-5.448,2.208-8.809,2.208
		C263.182,59.516,260.237,58.78,257.709,57.308z M273.214,53.708c1.888-1.152,3.327-2.719,4.319-4.704
		c0.992-1.983,1.488-4.224,1.488-6.72s-0.496-4.735-1.488-6.72c-0.992-1.983-2.432-3.552-4.319-4.704
		c-1.889-1.152-4.112-1.728-6.673-1.728c-2.592,0-4.823,0.576-6.695,1.728c-1.872,1.152-3.305,2.72-4.296,4.704
		c-0.992,1.985-1.488,4.224-1.488,6.72s0.496,4.736,1.488,6.72c0.991,1.985,2.424,3.552,4.296,4.704
		c1.872,1.152,4.104,1.728,6.695,1.728C269.102,55.436,271.325,54.86,273.214,53.708z"/>
</g>
<circle class="st5" cx="20" cy="32" r="12.727"/>
<g id="Warstwa_2">
	<line class="st6" x1="228.482" y1="53.102" x2="241.971" y2="67.16"/>
	<line class="st6" x1="242.255" y1="53.389" x2="228.198" y2="66.872"/>
</g>
<g>
</g>
<g>
</g>
<g>
</g>
<g>
</g>
<g>
</g>
<g>
</g>
<g>
</g>
<g>
</g>
<g>
</g>
<g>
</g>
<g>
</g>
<g>
</g>
<g>
</g>
<g>
</g>
<g>
</g>
</svg>
