<?xml version="1.0" encoding="utf-8"?>
<!-- Generator: Adobe Illustrator 17.0.0, SVG Export Plug-In . SVG Version: 6.00 Build 0)  -->
<!DOCTYPE svg PUBLIC "-//W3C//DTD SVG 1.1//EN" "http://www.w3.org/Graphics/SVG/1.1/DTD/svg11.dtd">
<svg version="1.1" xmlns="http://www.w3.org/2000/svg" xmlns:xlink="http://www.w3.org/1999/xlink" x="0px" y="0px" width="1047px"
	 height="800px" viewBox="0 0 1047 800" enable-background="new 0 0 1047 800" xml:space="preserve">
<g id="BACKGROUND">
	<rect x="113" fill="#FFFFFF" width="800" height="800"/>
</g>
<g id="OBJECT">
	<g>
		<defs>
			<polyline id="SVGID_1_" points="113,800 113,0 913,0 913,800 			"/>
		</defs>
		<clipPath id="SVGID_2_">
			<use xlink:href="#SVGID_1_"  overflow="visible"/>
		</clipPath>
		<g clip-path="url(#SVGID_2_)">
			<g>
				<linearGradient id="SVGID_3_" gradientUnits="userSpaceOnUse" x1="634.2322" y1="647.5782" x2="634.2322" y2="312.3404">
					<stop  offset="0" style="stop-color:#FFFFFF"/>
					<stop  offset="0.2728" style="stop-color:#D9EDE2"/>
					<stop  offset="0.5861" style="stop-color:#B4DCC6"/>
					<stop  offset="0.8398" style="stop-color:#9DD2B4"/>
					<stop  offset="1" style="stop-color:#95CEAE"/>
				</linearGradient>
				<path fill="url(#SVGID_3_)" d="M748.412,427.526v-5.574c0-13.72-11.122-24.842-24.842-24.842h0
					c-6.018,0-10.896-4.879-10.896-10.897v-37.062v-18.526v-5.398c0-9.21-7.466-16.676-16.676-16.676h-11.584
					c-9.21,0-16.676,7.466-16.676,16.676l0,0c0,2.981-2.417,5.398-5.398,5.398h-22.71c-2.981,0-5.398-2.417-5.398-5.398V308.55
					c0-9.143-7.412-16.555-16.555-16.555h-24.045c-9.143,0-16.555,7.412-16.555,16.555l0,0h-4.529
					c-11.432,0-20.699,9.267-20.699,20.699v97.93c0,5.888-4.773,10.661-10.661,10.661h0c-27.202,0-49.254,22.052-49.254,49.254
					v123.637H776.53V455.643c0-9.832-7.971-17.803-17.803-17.803l0,0C753.031,437.841,748.412,433.222,748.412,427.526z"/>
				<linearGradient id="SVGID_4_" gradientUnits="userSpaceOnUse" x1="603.6241" y1="662.4402" x2="603.6241" y2="371.3568">
					<stop  offset="0" style="stop-color:#FFFFFF"/>
					<stop  offset="0.1154" style="stop-color:#E8F2ED"/>
					<stop  offset="0.4148" style="stop-color:#B0D3C2"/>
					<stop  offset="0.6727" style="stop-color:#88BDA3"/>
					<stop  offset="0.8762" style="stop-color:#6FAF90"/>
					<stop  offset="1" style="stop-color:#66AA89"/>
				</linearGradient>
				<path fill="url(#SVGID_4_)" d="M751.615,569.247h-27.84c-11.417,0-20.672-9.255-20.672-20.672v-85.32
					c0-8.454-6.854-15.308-15.308-15.308h-4.316v-3.117c0-3.76-3.048-6.808-6.808-6.808c-3.76,0-6.809,3.048-6.809,6.808v11.129
					c-5.759,0-10.428,4.669-10.428,10.428c0,3.733-3.026,6.76-6.76,6.76h-37.908c-3.733,0-6.76-3.026-6.76-6.76v-52.847
					c0-10.359-8.398-18.756-18.756-18.756h-17.952h-6.961h-4.813c-9.672,0-17.513,7.841-17.513,17.513v28.185
					c0,4.623-3.747,8.37-8.37,8.37h-21.367c0-6.346-5.144-11.489-11.489-11.489h-4.055V426.86c0-3.919-3.177-7.096-7.096-7.096
					c-3.919,0-7.096,3.177-7.096,7.096v15.85c0,3.392-2.75,6.141-6.141,6.141c-5.566,0-10.079,4.512-10.079,10.079v63.575
					c0,3.926-3.183,7.109-7.109,7.109c-13.244,0-23.98,10.736-23.98,23.98v6.583c0,3.836-3.11,6.947-6.947,6.947
					c-12.213,0-22.114,9.901-22.114,22.115c0,2.717-2.203,4.919-4.919,4.919c-23.038,0-41.714,18.676-41.714,41.714v29.474h204.802
					h6.961h36.708h51.427h28.08h15.59h144.611C847.714,612.272,804.689,569.247,751.615,569.247z"/>
				<linearGradient id="SVGID_5_" gradientUnits="userSpaceOnUse" x1="390.7437" y1="647.5781" x2="390.7437" y2="356.4946">
					<stop  offset="0" style="stop-color:#FFFFFF"/>
					<stop  offset="0.1154" style="stop-color:#E8F2ED"/>
					<stop  offset="0.4148" style="stop-color:#B0D3C2"/>
					<stop  offset="0.6727" style="stop-color:#88BDA3"/>
					<stop  offset="0.8762" style="stop-color:#6FAF90"/>
					<stop  offset="1" style="stop-color:#66AA89"/>
				</linearGradient>
				<path fill="url(#SVGID_5_)" d="M526.588,574.376v-22.115l0,0c-0.174-20.766-17.058-37.509-37.825-37.509h-15.215
					c-3.926,0-7.109-3.183-7.109-7.109v-63.575c0-5.566-4.512-10.079-10.079-10.079h0c-3.392,0-6.141-2.75-6.141-6.141v-15.851
					c0-3.919-3.177-7.096-7.096-7.096l0,0c-3.919,0-7.096,3.177-7.096,7.096V422.5h-4.055c-6.345,0-11.489,5.144-11.489,11.489l0,0
					h-21.367c-4.623,0-8.37-3.747-8.37-8.37v-28.185c0-9.672-7.841-17.512-17.512-17.512h-16.339
					c-9.672,0-17.513,7.841-17.513,17.512V422.5l0,0c-11.198,0-20.275,9.077-20.275,20.275v96.831
					c0,6.989-5.666,12.655-12.655,12.655h-21.966c-7.007,0-12.688,5.681-12.688,12.688l0,0c0,7.923-6.423,14.346-14.346,14.346h0
					c-27.163,0-49.183,22.02-49.183,49.183v22.005h364.954v-29.474c0-23.038-18.676-41.714-41.714-41.714l0,0
					C528.79,579.295,526.588,577.093,526.588,574.376z"/>
			</g>
			<circle fill="#FDCA6F" cx="734.633" cy="162.682" r="83.344"/>
			<g>
				<path fill="#B5E8DE" d="M736.331,261.576L736.331,261.576c0-6.152,4.987-11.139,11.14-11.139h39.774
					c6.152,0,11.139-4.987,11.139-11.139v0c0-6.152-4.987-11.139-11.139-11.139h-2.586c-6.152,0-11.139-4.987-11.139-11.14l0,0
					c0-6.152,4.987-11.139,11.139-11.139h41.463c6.152,0,11.139-4.987,11.139-11.139l0,0c0-6.152-4.987-11.139-11.139-11.139
					H698.511c-6.152,0-11.139,4.987-11.139,11.139l0,0c0,6.152,4.987,11.139,11.139,11.139h21.865c6.152,0,11.14,4.987,11.14,11.139
					l0,0c0,6.152-4.987,11.14-11.14,11.14H600.25c-6.152,0-11.139,4.987-11.139,11.139v0c0,6.152,4.987,11.139,11.139,11.139h86.014
					c6.152,0,11.14,4.987,11.14,11.139l0,0c0,6.152-4.987,11.139-11.14,11.139h-24.198c-6.152,0-11.14,4.987-11.14,11.139v0
					c0,6.152,4.987,11.139,11.14,11.139h180.991c6.152,0,11.139-4.987,11.139-11.139v0c0-6.152-4.987-11.139-11.139-11.139h-95.587
					C741.319,272.715,736.331,267.728,736.331,261.576z"/>
				<path fill="#B5E8DE" d="M714.425,206.878h-38.23c-6.152,0-11.139-4.987-11.139-11.139l0,0c0-6.152,4.987-11.139,11.139-11.139
					h38.23c6.152,0,11.139,4.987,11.139,11.139l0,0C725.565,201.891,720.577,206.878,714.425,206.878z"/>
			</g>
			<g>
				<path fill="#B5E8DE" d="M383.823-4.368h-38.23c-6.152,0-11.139-4.987-11.139-11.14l0,0c0-6.152,4.987-11.14,11.139-11.14h38.23
					c6.152,0,11.14,4.987,11.14,11.14l0,0C394.963-9.356,389.975-4.368,383.823-4.368z"/>
			</g>
			<g>
				<g>
					<g>
						<g>
							<path fill="#B78656" d="M655.313,560.002H370.687v-66.762c0-19.8,16.051-35.852,35.851-35.852h212.922
								c19.8,0,35.852,16.051,35.852,35.852V560.002z"/>
							<path fill="#E6E7E8" d="M429.131,457.388h-20.928c-20.719,0-37.516,16.796-37.516,37.516v65.098h20.928v-65.098
								C391.616,474.184,408.412,457.388,429.131,457.388z"/>
							<path fill="#C1946B" d="M596.868,457.388h20.928c20.719,0,37.516,16.796,16.587,37.516v65.098l0,0v-65.098
								C634.384,474.184,617.588,457.388,596.868,457.388z"/>
						</g>
						<path fill="#AE571D" d="M662.905,512.673h-22.08c-5.627,0-10.189,4.562-10.189,10.189v53.643h42.458v-53.643
							C673.094,517.235,668.532,512.673,662.905,512.673z"/>
						<path fill="#AE571D" d="M385.175,512.673h-22.08c-5.627,0-10.189,4.562-10.189,10.189v53.643h42.458v-53.643
							C395.364,517.235,390.802,512.673,385.175,512.673z"/>
						<path fill="#E6E7E8" d="M651.289,512.673h-10.464c-5.627,0-10.189,4.562-10.189,10.189v53.643H641.1v-53.643
							C641.1,517.235,645.662,512.673,651.289,512.673z"/>
						<path fill="#E6E7E8" d="M373.559,512.673h-10.464c-5.627,0-10.189,4.562-10.189,10.189v53.643h10.464v-53.643
							C363.37,517.235,367.932,512.673,373.559,512.673z"/>
						<path fill="#B76730" d="M374.711,512.673h10.464c5.627,0,10.189,4.562,10.189,10.189v53.643H384.9v-53.643
							C384.9,517.235,380.338,512.673,374.711,512.673z"/>
						<path fill="#B76730" d="M652.441,512.673h10.464c5.627,0,10.189,4.562,10.189,10.189v53.643H662.63v-53.643
							C662.63,517.235,658.068,512.673,652.441,512.673z"/>
						<g>
							<path fill="#CEA575" d="M673.094,614.176H352.906v-36.293c0-11.898,9.645-21.543,21.544-21.543h277.1
								c11.898,0,21.544,9.645,21.544,21.543V614.176z"/>
							<path fill="#E6E7E8" d="M396.378,556.339H375.45c-12.45,0-22.544,10.093-22.544,22.543v35.293h20.928v-35.293
								C373.835,566.432,383.928,556.339,396.378,556.339z"/>
							<path fill="#D8AF87" d="M629.622,556.339h20.928c12.45,0,22.544,10.093,22.544,22.543v35.293h-20.928v-35.293
								C652.165,566.432,642.072,556.339,629.622,556.339z"/>
						</g>
						<g>
							<path fill="#AE571D" d="M352.906,614.176v13.641c0,3.928,3.185,7.113,7.113,7.113h305.962c3.928,0,7.113-3.184,7.113-7.113
								v-13.641H352.906z"/>
							<path fill="#E6E7E8" d="M373.835,627.817v-13.641h-20.928v13.641c0,3.928,3.185,7.113,7.113,7.113h20.928
								C377.019,634.93,373.835,631.745,373.835,627.817z"/>
							<path fill="#B76730" d="M652.165,627.817v-13.641h20.928v13.641c0,3.928-3.185,7.113-7.113,7.113h-20.928
								C648.981,634.93,652.165,631.745,652.165,627.817z"/>
						</g>
						<g>
							<path d="M383.419,634.93v4.047c0,1.617,1.311,2.929,2.929,2.929h8.792c1.617,0,2.929-1.311,2.929-2.929v-4.047H383.419z"/>
							<path d="M627.931,634.93v4.047c0,1.617,1.311,2.929,2.929,2.929h8.792c1.617,0,2.929-1.311,2.929-2.929v-4.047H627.931z"/>
						</g>
					</g>
					<g>
						<g>
							
								<rect x="357.698" y="358.719" transform="matrix(0.3618 0.9323 -0.9323 0.3618 638.5422 -206.5373)" width="224.852" height="8.795"/>
						</g>
						<g>
							
								<rect x="260.023" y="373.332" transform="matrix(0.4985 0.8669 -0.8669 0.4985 526.1131 -153.9272)" width="272.129" height="8.795"/>
						</g>
						<g>
							
								<rect x="443.45" y="358.719" transform="matrix(-0.3618 0.9323 -0.9323 -0.3618 1095.5151 -23.7184)" width="224.852" height="8.795"/>
						</g>
						<g>
							
								<rect x="493.847" y="373.332" transform="matrix(-0.4985 0.8669 -0.8669 -0.4985 1271.3561 19.9336)" width="272.129" height="8.795"/>
						</g>
						<path fill="#F9BE8E" d="M600.504,352.374c1.966,0,3.56,1.594,3.56,3.56v1.732c0,3.511,2.846,6.357,6.357,6.357h2.965v7.119
							h-2.965c-7.443,0-13.476-6.034-13.476-13.476v-1.732C596.945,353.968,598.539,352.374,600.504,352.374z"/>
						<path fill="#F9BE8E" d="M635.938,357.151v-7.409c0-1.966-1.594-3.561-3.561-3.561h-0.572c-1.967,0-3.561,1.594-3.561,3.561
							c0-1.966-1.594-3.561-3.561-3.561h-0.572c-1.966,0-3.561,1.594-3.561,3.561c0-1.966-1.594-3.561-3.561-3.561h-0.572
							c-1.966,0-3.561,1.594-3.561,3.561c0-1.966-1.594-3.561-3.561-3.561h-0.572c-1.966,0-3.561,1.594-3.561,3.561v7.481
							c0,0.006-0.002,0.011-0.002,0.017v36.06c0,15.182-12.307,27.489-27.489,27.489h-12.822v30.783h12.822
							c32.183,0,58.273-26.09,58.273-58.272v-36.06C635.947,357.209,635.939,357.181,635.938,357.151z"/>
						<g>
							<path fill="#E6E7E8" d="M611.76,393.3v-46.121c-0.64-0.615-1.505-0.997-2.462-0.997h-0.572c-1.966,0-3.561,1.594-3.561,3.561
								v7.481c0,0.006-0.002,0.011-0.002,0.017v36.06c0,15.182-12.307,27.489-27.489,27.489h6.596
								C599.453,420.789,611.76,408.482,611.76,393.3z"/>
							<rect x="564.852" y="420.789" fill="#E6E7E8" width="6.596" height="30.783"/>
						</g>
						<path fill="#F9BE8E" d="M420.75,352.374c-1.966,0-3.56,1.594-3.56,3.56v1.732c0,3.511-2.846,6.357-6.357,6.357h-2.965v7.119
							h2.965c7.443,0,13.476-6.034,13.476-13.476v-1.732C424.309,353.968,422.715,352.374,420.75,352.374z"/>
						<path fill="#F9BE8E" d="M443.579,420.789c-15.182,0-27.489-12.307-27.489-27.489v-36.06c0-0.006-0.002-0.011-0.002-0.017
							v-7.481c0-1.966-1.594-3.561-3.561-3.561h-0.572c-1.966,0-3.561,1.594-3.561,3.561c0-1.966-1.594-3.561-3.561-3.561h-0.572
							c-1.966,0-3.561,1.594-3.561,3.561c0-1.966-1.594-3.561-3.561-3.561h-0.572c-1.967,0-3.561,1.594-3.561,3.561
							c0-1.966-1.594-3.561-3.561-3.561h-0.572c-1.966,0-3.561,1.594-3.561,3.561v7.409c0,0.03-0.009,0.058-0.009,0.088v36.06
							c0,32.183,26.09,58.272,58.273,58.272h12.822v-30.783H443.579z"/>
						<path fill="#E6E7E8" d="M391.903,393.3v-36.06c0-0.03,0.008-0.058,0.009-0.088v-9.972c-0.64-0.615-1.506-0.998-2.464-0.998
							h-0.572c-1.966,0-3.561,1.594-3.561,3.561v7.409c0,0.03-0.009,0.058-0.009,0.088v36.06c0,32.183,26.09,58.272,58.273,58.272
							h6.596C417.993,451.572,391.903,425.483,391.903,393.3z"/>
						<rect x="532.778" y="605.442" fill="#9F958A" width="38.754" height="24.462"/>
						<rect x="453.538" y="605.442" fill="#9F958A" width="38.754" height="24.462"/>
						<path fill="#66AA89" d="M449.418,498.068v46.175v56.708c0,8.401,6.81,15.211,15.211,15.211h17.949
							c8.401,0,15.211-6.81,15.211-15.211v-41.497c0-8.401,6.81-15.211,15.211-15.211l0,0c8.401,0,15.211,6.81,15.211,15.211v41.497
							c0,8.401,6.81,15.211,15.211,15.211h17.95c8.401,0,15.211-6.81,15.211-15.211v-56.708v-46.175H449.418z"/>
						<g>
							<path fill="#7BBA99" d="M502.006,544.242c-8.401,0-15.211,6.81-15.211,15.211v41.497c0,8.401-6.81,15.211-15.211,15.211
								h10.994c8.401,0,15.211-6.81,15.211-15.211v-41.497c0-6.46,4.034-11.965,9.714-14.171
								C505.796,544.62,503.947,544.242,502.006,544.242z"/>
							<path fill="#7BBA99" d="M565.588,498.068v46.175v56.708c0,8.401-6.81,15.211-15.211,15.211h10.994
								c8.401,0,15.211-6.81,15.211-15.211v-56.708v-46.175H565.588z"/>
						</g>
						<g>
							<path fill="#D1D3D4" d="M460.412,600.951v-56.708v-46.175h-10.994v46.175v56.708c0,8.401,6.81,15.211,15.211,15.211h10.994
								C467.222,616.162,460.412,609.351,460.412,600.951z"/>
							<path fill="#D1D3D4" d="M539.205,600.951v-41.497c0-8.401-6.81-15.211-15.211-15.211c-1.941,0-3.79,0.378-5.497,1.04
								c5.68,2.206,9.714,7.711,9.714,14.171v41.497c0,8.401,6.81,15.211,15.211,15.211h10.994
								C546.015,616.162,539.205,609.351,539.205,600.951z"/>
						</g>
						<path fill="#E52E2E" d="M583.853,414.513h-29.008c-3.179-1.064-6.577-1.649-10.113-1.649h-63.465
							c-3.537,0-6.935,0.585-10.113,1.649h-33.754c-3.269,0-5.919,2.65-5.919,5.919v28.748c0,3.269,2.65,5.919,5.919,5.919h12.017
							v62.025h127.164v-62.025h7.271c3.269,0,5.919-2.65,5.919-5.919v-28.748C589.772,417.163,587.122,414.513,583.853,414.513z"/>
						<path fill="#ED5858" d="M583.853,414.513h-29.008c-3.179-1.064-6.577-1.649-10.113-1.649h-63.465
							c-3.537,0-6.935,0.585-10.113,1.649h-33.754c-3.269,0-5.919,2.65-5.919,5.919v4.997l102.257-1.571
							c3.537,0,6.935,0.585,10.113,1.649h29.008c3.269,0,5.919,2.65,5.919,5.919v17.186c0,3.269-2.65,5.919-5.919,5.919h-7.271
							v62.592h10.994v-62.025h7.271c3.269,0,5.919-2.65,5.919-5.919v-28.748C589.772,417.163,587.122,414.513,583.853,414.513z"/>
						<path fill="#D1D3D4" d="M460.412,517.124v-73.019h-28.93v5.075c0,3.269,2.65,5.919,5.919,5.919h12.017v62.025H460.412z"/>
						<path fill="#F9BE8E" d="M516.777,448.778h-7.554c-20.987,0-38-17.013-38-38v-45.554h83.554v45.554
							C554.777,431.765,537.764,448.778,516.777,448.778z"/>
						<path fill="#FFCFAB" d="M543.783,365.224v41.777c0,21.208-15.807,38.713-36.28,41.406c1.8,0.237,3.632,0.372,5.497,0.372h0
							c23.073,0,41.777-18.704,41.777-41.777v-41.777H543.783z"/>
						<path fill="#E6E7E8" d="M482.217,407.001v-41.777h-10.994v41.777c0,23.073,18.704,41.777,41.777,41.777h0
							c1.865,0,3.697-0.135,5.497-0.372C498.024,445.714,482.217,428.209,482.217,407.001z"/>
						<path d="M472.915,612.497L472.915,612.497c-13.491,0-24.427,10.936-24.427,24.427v0c0,2.751,2.23,4.982,4.982,4.982h38.891
							c2.751,0,4.982-2.23,4.982-4.982v0C497.342,623.433,486.406,612.497,472.915,612.497z"/>
						<g>
							<path fill="#ED5858" d="M513,73.608c-104.132,0-188.547,84.415-188.547,188.547h377.094
								C701.547,158.024,617.132,73.608,513,73.608z"/>
							<path fill="#E52E2E" d="M513,73.608c-45.74,0-82.82,84.415-82.82,188.547h165.64C595.82,158.024,558.74,73.608,513,73.608z"
								/>
						</g>
						<path fill="#E57713" d="M554.777,370.152h-83.554v-3.171c0-12.062,9.778-21.841,21.841-21.841h14.315
							c10.135,0,19.941-3.597,27.671-10.151l4.884-4.141l7.437,7.16c4.733,4.557,7.408,10.844,7.408,17.415V370.152z"/>
						<ellipse fill="#2C3330" cx="472.915" cy="619.151" rx="10.53" ry="5.463"/>
						<path d="M552.155,612.497L552.155,612.497c-13.491,0-24.427,10.936-24.427,24.427v0c0,2.751,2.231,4.982,4.982,4.982H571.6
							c2.751,0,4.982-2.23,4.982-4.982v0C576.582,623.433,565.646,612.497,552.155,612.497z"/>
						<ellipse fill="#2C3330" cx="552.155" cy="619.151" rx="10.53" ry="5.463"/>
						<g>
							<path fill="#C11F1F" d="M499.661,404.161v15.24c0,8.417,6.823,15.24,15.24,15.24l0,0c8.417,0,15.24-6.823,15.24-15.24v-15.24
								H499.661z"/>
						</g>
						<g>
							<path fill="#9F958A" d="M548.364,365.388h-70.729c-6.476,0-11.726,5.25-11.726,11.726v22.722
								c0,6.476,5.25,11.726,11.726,11.726h70.729c6.476,0,11.726-5.25,11.726-11.726v-22.722
								C560.091,370.638,554.841,365.388,548.364,365.388z"/>
							<path fill="#E9F2DD" d="M534.256,363.739h-42.512c-6.476,0-11.726,5.25-11.726,11.726v26.021
								c0,6.476,5.25,11.726,11.726,11.726h42.512c6.476,0,11.726-5.25,11.726-11.726v-26.021
								C545.982,368.989,540.732,363.739,534.256,363.739z"/>
							<path fill="#8B8576" d="M476.66,377.848h-6.413c-0.961,0-1.741,0.779-1.741,1.741s0.779,1.741,1.741,1.741h6.413
								c0.961,0,1.741-0.779,1.741-1.741S477.621,377.848,476.66,377.848z"/>
							<g>
								<path fill="#4E7688" d="M510.144,377.915h-24.307c-0.768,0-1.39,0.622-1.39,1.39c0,0.768,0.622,1.39,1.39,1.39h24.307
									c0.768,0,1.39-0.622,1.39-1.39C511.534,378.538,510.912,377.915,510.144,377.915z"/>
								<path fill="#4E7688" d="M510.144,384.375h-24.307c-0.768,0-1.39,0.622-1.39,1.39c0,0.768,0.622,1.39,1.39,1.39h24.307
									c0.768,0,1.39-0.622,1.39-1.39C511.534,384.998,510.912,384.375,510.144,384.375z"/>
								<path fill="#4E7688" d="M510.144,390.836h-24.307c-0.768,0-1.39,0.622-1.39,1.39c0,0.768,0.622,1.39,1.39,1.39h24.307
									c0.768,0,1.39-0.622,1.39-1.39C511.534,391.458,510.912,390.836,510.144,390.836z"/>
								<path fill="#4E7688" d="M510.144,397.296h-24.307c-0.768,0-1.39,0.622-1.39,1.39c0,0.768,0.622,1.39,1.39,1.39h24.307
									c0.768,0,1.39-0.622,1.39-1.39C511.534,397.918,510.912,397.296,510.144,397.296z"/>
							</g>
							<path fill="#8B8576" d="M476.66,383.62h-6.413c-0.961,0-1.741,0.779-1.741,1.741c0,0.961,0.779,1.741,1.741,1.741h6.413
								c0.961,0,1.741-0.779,1.741-1.741C478.401,384.399,477.621,383.62,476.66,383.62z"/>
							<path fill="#8B8576" d="M556.55,377.848h-6.413c-0.961,0-1.741,0.779-1.741,1.741s0.779,1.741,1.741,1.741h6.413
								c0.961,0,1.741-0.779,1.741-1.741S557.511,377.848,556.55,377.848z"/>
							<path fill="#8B8576" d="M556.55,383.62h-6.413c-0.961,0-1.741,0.779-1.741,1.741c0,0.961,0.779,1.741,1.741,1.741h6.413
								c0.961,0,1.741-0.779,1.741-1.741C558.291,384.399,557.511,383.62,556.55,383.62z"/>
							<path fill="#4E7688" d="M533.827,370.152h-2.901c-1.805,0-3.268,1.463-3.268,3.268v2.901c0,1.805,1.463,3.268,3.268,3.268
								h2.901c1.805,0,3.268-1.463,3.268-3.268v-2.901C537.095,371.615,535.632,370.152,533.827,370.152z"/>
							<path fill="#E9F2DD" d="M463.333,400.305h2.577v-23.659h-2.577c-1.773,0-3.211,1.438-3.211,3.211v17.237
								C460.121,398.867,461.559,400.305,463.333,400.305z"/>
							<path fill="#E9F2DD" d="M562.667,400.305h-2.577v-23.659h2.577c1.773,0,3.211,1.438,3.211,3.211v17.237
								C565.878,398.867,564.441,400.305,562.667,400.305z"/>
							<path d="M569.366,396.839h-3.465v-16.682h3.465c1.773,0,3.211,1.438,3.211,3.211v10.259
								C572.577,395.401,571.14,396.839,569.366,396.839z"/>
							<path d="M456.634,396.839h3.465v-16.682h-3.465c-1.773,0-3.211,1.438-3.211,3.211v10.259
								C453.423,395.401,454.86,396.839,456.634,396.839z"/>
						</g>
						<path fill="#ED5858" d="M511.099,421.293c-3.127,0-6.138,0.494-8.965,1.4c1.465,5.692,6.617,9.905,12.766,9.905l0,0
							c5.019,0,9.383-2.803,11.615-6.927C522.035,422.897,516.755,421.293,511.099,421.293z"/>
					</g>
				</g>
				<path fill="#AE571D" d="M728.398,651.732H297.602l0,0c0-5.427,4.399-9.826,9.826-9.826h411.142
					C723.998,641.906,728.398,646.305,728.398,651.732L728.398,651.732z"/>
			</g>
		</g>
	</g>
</g>
<g id="DESIGNED_BY_FREEPIK">
</g>
</svg>
