<?xml version="1.0" encoding="utf-8"?>
<!-- Generator: Adobe Illustrator 17.0.0, SVG Export Plug-In . SVG Version: 6.00 Build 0)  -->
<!DOCTYPE svg PUBLIC "-//W3C//DTD SVG 1.1//EN" "http://www.w3.org/Graphics/SVG/1.1/DTD/svg11.dtd">
<svg version="1.1" id="Warstwa_1" xmlns="http://www.w3.org/2000/svg" xmlns:xlink="http://www.w3.org/1999/xlink" x="0px" y="0px"
	 width="193.75px" height="197.917px" viewBox="0 0 193.75 197.917" enable-background="new 0 0 193.75 197.917"
	 xml:space="preserve">
<circle fill="#FFFFFF" cx="98.489" cy="99.4" r="77.241"/>
<path fill="#EA3457" d="M168.241,179.551c-2.469,0-4.942-0.943-6.826-2.829l-140-140c-3.771-3.771-3.771-9.882,0-13.653
	s9.882-3.771,13.653,0l140,140c3.771,3.771,3.771,9.882,0,13.653C173.183,178.608,170.711,179.551,168.241,179.551z"/>
<path fill="#EA3457" d="M28.241,179.551c-2.469,0-4.942-0.943-6.826-2.829c-3.771-3.771-3.771-9.882,0-13.653l140-140
	c3.771-3.771,9.882-3.771,13.653,0c3.771,3.771,3.771,9.882,0,13.653l-140,140C33.183,178.608,30.71,179.551,28.241,179.551z"/>
</svg>
